<svg xmlns="http://www.w3.org/2000/svg" style="display: none;">
    <symbol id="icon-fubuki" viewBox="0 0 36 36">
        <path fill="#F4900C" d="M13.431 9.802c.658 2.639.176 4.879-2.462 5.536-2.64.657-6.211 4.954-8.782-1.438C.696 10.197-.606 2.434.874 2.065c1.48-.368 11.9 5.098 12.557 7.737z"/>
        <path fill="#A0041E" d="M11.437 10.355c.96 1.538-1.831 4.561-3.368 5.522-1.538.961-2.899-.552-4.414-4.414-.662-1.689-1.666-6.27-1.103-6.622.562-.351 7.924 3.976 8.885 5.514z"/>
        <path fill="#F4900C" d="M22.557 9.802c-.657 2.639-.177 4.879 2.463 5.536s6.21 4.954 8.782-1.438c1.49-3.703 2.792-11.466 1.312-11.835-1.48-.368-11.899 5.098-12.557 7.737z"/>
        <path fill="#A0041E" d="M24.552 10.355c-.96 1.538 1.831 4.561 3.368 5.522 1.537.961 2.898-.552 4.413-4.414.662-1.688 1.666-6.269 1.104-6.621-.563-.352-7.924 3.975-8.885 5.513z"/>
        <path fill="#F4900C" d="M18.001 9.255C11.379 7.048 6.53 11.229 2.552 19.188h2.207s-2.207 2.206-3.311 5.517c2.207-1.104 3.311-1.104 3.311-1.104s-1.104 2.208-1.104 3.312c3.311-2.208 6.621-2.208 8.828 1.103s5.518 0 5.518-4.414V9.255z"/>
        <path fill="#F4900C" d="M18.001 9.255c6.621-2.207 11.471 1.974 15.448 9.932h-2.206s2.206 2.206 3.309 5.517C32.346 23.6 31.243 23.6 31.243 23.6s1.103 2.208 1.103 3.312c-3.311-2.208-6.621-2.208-8.828 1.103-2.208 3.311-5.518 0-5.518-4.414l.001-14.346z"/>
        <path fill="#F4900C" d="M18.001 8.29h-.003c-11.334.001-9.605 4.369-8.39 11.632 1.214 7.266 2.65 12.421 8.393 12.421 5.741 0 7.175-5.155 8.391-12.421 1.213-7.264 2.941-11.631-8.391-11.632z"/>
        <path fill="#F18F26" d="M34.709 26.042c-.084-5.708-9.301-3.745-10.087-2.972-1.104 1.084-1.108 7.705-6.623 7.705-5.516 0-6.62-6.621-7.723-7.705-.787-.773-9.234-1.403-9.026 2.972 2.207-1.104 3.508-.784 3.508-.784s-1.425.826-1.216 2.784c3.208-1.458 4.708-1.25 6.458-.375C11.213 31.29 14.206 34 18.001 34c3.793 0 6.746-2.794 7.958-6.416 1.458-1.25 3.708-.875 6.416.416.292-1.833-1.132-2.742-1.132-2.742s1.26-.32 3.466.784z"/>
        <path fill="#FFD983" d="M34.553 24.704c-.904-2.718-9.145-4.064-9.931-3.291-1.104 1.084-1.108 7.705-6.623 7.705-5.516 0-6.62-6.621-7.723-7.705-.787-.773-7.922.573-8.828 3.291C3.655 23.6 4.759 23.6 4.759 23.6s-1.104 2.208-1.104 3.312c2.67-1.78 5.339-2.122 7.429-.452 1.213 3.623 3.122 5.883 6.917 5.883 3.793 0 5.7-2.259 6.912-5.881 2.092-1.673 4.763-1.33 7.434.45 0-1.104-1.103-3.312-1.103-3.312s1.103.001 3.309 1.104z"/>
        <path fill="#272B2B" d="M11 17s0-1.5 1.5-1.5S14 17 14 17v1.5s0 1.5-1.5 1.5-1.5-1.5-1.5-1.5V17zm11 0s0-1.5 1.5-1.5S25 17 25 17v1.5s0 1.5-1.5 1.5-1.5-1.5-1.5-1.5V17zm-7.061 10.808c-1.021.208 2.041 3.968 3.062 3.968 1.02 0 4.082-3.76 3.062-3.968-1.021-.208-5.103-.208-6.124 0z"/>
    </symbol>
    <symbol id="icon-aqua" viewBox="0 0 36 36">
        <path fill="#269" d="M30.5 18.572L26 25h2.575c-1.13 3.988-4.445 7.05-8.575 7.81V17h3c1.104 0 2-.896 2-2s-.896-2-2-2h-3v-1.349h-4V13h-3c-1.104 0-2 .896-2 2s.896 2 2 2h3v15.81c-4.13-.76-7.445-3.821-8.575-7.81H10l-4.5-6.428L1 25h3.33C5.705 31.289 11.299 36 18 36s12.295-4.711 13.67-11H35l-4.5-6.428z"/>
        <path fill="#269" d="M18 0c-3.314 0-6 2.686-6 6s2.686 6 6 6 6-2.686 6-6-2.686-6-6-6zm0 9c-1.657 0-3-1.343-3-3s1.343-3 3-3 3 1.343 3 3-1.343 3-3 3z"/>
    </symbol>
    <symbol id="icon-noel" viewBox="0 0 36 36">
        <path fill="#CCD6DD" d="M24 29l5-5L6 1H1v5z"/>
        <path fill="#9AAAB4" d="M1 1v5l23 23 2.5-2.5z"/>
        <path fill="#D99E82" d="M33.424 32.808c.284-.284.458-.626.531-.968l-5.242-6.195-.701-.702c-.564-.564-1.57-.473-2.248.205l-.614.612c-.677.677-.768 1.683-.204 2.247l.741.741 6.15 5.205c.345-.072.688-.247.974-.532l.613-.613z"/>
        <path d="M33.424 32.808c.284-.284.458-.626.531-.968l-1.342-1.586-.737 3.684c.331-.077.661-.243.935-.518l.613-.612zm-3.31-5.506l-.888 4.441 1.26 1.066.82-4.1zm-1.401-1.657l-.701-.702c-.096-.096-.208-.166-.326-.224l-.978 4.892 1.26 1.066.957-4.783-.212-.249zm-2.401-.888c-.195.095-.382.225-.548.392l-.614.611c-.254.254-.425.554-.511.86-.142.51-.046 1.035.307 1.387l.596.596.77-3.846c0-.001 0-.001 0 0z" fill="#BF6952"/>
        <circle fill="#8A4633" cx="33.25" cy="33.25" r="2.75"/>
        <path fill="#FFAC33" d="M29.626 22.324c.404.404.404 1.059 0 1.462l-6.092 6.092c-.404.404-1.058.404-1.462 0-.404-.404-.404-1.058 0-1.462l6.092-6.092c.402-.404 1.058-.404 1.462 0z"/>
        <circle fill="#FFAC33" cx="22.072" cy="29.877" r="1.75"/>
        <circle fill="#FFAC33" cx="29.626" cy="22.323" r="1.75"/>
        <circle fill="#FFCC4D" cx="22.072" cy="29.877" r="1"/>
        <circle fill="#FFCC4D" cx="29.626" cy="22.323" r="1"/>
        <path fill="#FFAC33" d="M33.903 29.342c.298.298.298.781 0 1.078l-3.476 3.475c-.298.298-.78.298-1.078 0-.298-.298-.298-.78 0-1.078l3.476-3.475c.297-.298.78-.298 1.078 0z"/>
        <path fill="#CCD6DD" d="M12 29l-5-5L30 1h5v5z"/>
        <path fill="#9AAAB4" d="M35 1v5L12 29l-2.5-2.5z"/>
        <path fill="#D99E82" d="M2.576 32.808c-.284-.284-.458-.626-.531-.968l5.242-6.195.701-.702c.564-.564 1.57-.473 2.248.205l.613.612c.677.677.768 1.683.204 2.247l-.741.741-6.15 5.205c-.345-.072-.688-.247-.974-.532l-.612-.613z"/>
        <path d="M2.576 32.808c-.284-.284-.458-.626-.531-.968l1.342-1.586.737 3.684c-.331-.077-.661-.243-.935-.518l-.613-.612zm3.31-5.506l.888 4.441-1.26 1.066-.82-4.1zm1.401-1.657l.701-.702c.096-.096.208-.166.326-.224l.978 4.892-1.26 1.066-.957-4.783.212-.249zm2.401-.888c.195.095.382.225.548.392l.613.612c.254.254.425.554.511.86.142.51.046 1.035-.307 1.387l-.596.596-.769-3.847c0-.001 0-.001 0 0z" fill="#BF6952"/>
        <circle fill="#8A4633" cx="2.75" cy="33.25" r="2.75"/>
        <path fill="#FFAC33" d="M6.374 22.324c-.404.404-.404 1.059 0 1.462l6.092 6.092c.404.404 1.058.404 1.462 0 .404-.404.404-1.058 0-1.462l-6.092-6.092c-.402-.404-1.058-.404-1.462 0z"/>
        <circle fill="#FFAC33" cx="13.928" cy="29.877" r="1.75"/>
        <circle fill="#FFAC33" cx="6.374" cy="22.323" r="1.75"/>
        <circle fill="#FFCC4D" cx="13.928" cy="29.877" r="1"/>
        <circle fill="#FFCC4D" cx="6.374" cy="22.323" r="1"/>
        <path fill="#FFAC33" d="M2.097 29.342c-.298.298-.298.781 0 1.078l3.476 3.475c.298.298.78.298 1.078 0 .298-.298.298-.78 0-1.078l-3.476-3.475c-.297-.298-.78-.298-1.078 0z"/>
    </symbol>
    <symbol id="icon-marine" viewBox="0 0 36 36">
        <path fill="#31373D" d="M32 5H4C1.791 5 0 6.791 0 9v18c0 2.209 1.791 4 4 4h28c2.209 0 4-1.791 4-4V9c0-2.209-1.791-4-4-4z"/>
        <circle fill="#31373D" cx="15.5" cy="12.5" r="1.5"/>
        <circle fill="#31373D" cx="20.5" cy="12.5" r="1.5"/>
        <ellipse fill="#292F33" cx="18" cy="15.5" rx="1" ry=".5"/>
        <path fill="#E6E7E8" d="M29.021 24.883c-.52-.189-1.093.078-1.282.598L20.923 23l6.816-2.48c.189.52.762.786 1.281.598.52-.19.787-.762.598-1.281-.188-.519-.762-.787-1.281-.599.519-.189.787-.762.598-1.281-.19-.52-.762-.787-1.281-.598-.519.188-.787.763-.598 1.282L18 21.937l-9.056-3.296c.189-.52-.078-1.094-.598-1.282-.52-.19-1.092.078-1.281.598-.189.519.078 1.093.598 1.281-.52-.189-1.093.079-1.281.599-.189.52.078 1.092.598 1.281.52.188 1.092-.078 1.281-.598L15.077 23l-6.815 2.48c-.189-.52-.763-.787-1.282-.598-.519.189-.786.762-.598 1.281.189.519.763.787 1.282.598-.52.19-.787.763-.598 1.282.188.52.763.786 1.281.598.519-.189.787-.763.598-1.282L18 24.065l9.055 3.295c-.19.52.079 1.093.598 1.282.519.188 1.093-.078 1.281-.598.189-.519-.078-1.093-.598-1.282.52.19 1.093-.078 1.282-.598.189-.519-.079-1.093-.597-1.281z"/>
        <path fill="#E6E7E8" d="M18 7c-4 0-6 3.239-6 6 0 1.394.827 2.399 2 3.054V18c0 .553.448 1 1 1s1-.447 1-1v-1.216c.33.072.665.127 1 .162V18c0 .553.448 1 1 1s1-.447 1-1v-1.054c.335-.036.67-.09 1-.162V18c0 .553.447 1 1 1s1-.447 1-1v-1.946c1.173-.654 2-1.659 2-3.054 0-2.761-2-6-6-6zm-2.5 7c-.829 0-1.5 0-1.5-1.5 0-.829.671-1.5 1.5-1.5 1.5 0 1.5.671 1.5 1.5s-.671 1.5-1.5 1.5zm2.5 2c-.552 0-1-.224-1-.5s.448-.5 1-.5 1 .224 1 .5-.448.5-1 .5zm2.5-2c-.828 0-1.5-.671-1.5-1.5s0-1.5 1.5-1.5c.828 0 1.5.671 1.5 1.5 0 1.5-.672 1.5-1.5 1.5z"/>
    </symbol>
    <symbol id="icon-korone" viewBox="0 0 36 36">
        <path fill="#F4900C" d="M11.569 35.41c-2.223-.63-5.362-4.11-6.86-7.331-.183-.391-1.101-.673-1.265-1.084C.953 20.775.637 12.54 6.342 6.834 12.751.425 20.537-.295 26.817 1.757c.45.147.837 1.114 1.286 1.199 5.917 1.115 8.322 7.549 5.759 6.816-1.199-.342-2.657-.557-3.814-.428-.437.049-1.051.892-1.544.962-.767.11-2.64.212-3.564.305-9.159.916-12.395 6.971-12.811 14.256-.046.808-.617.623-.73 1.283-.344 1.992 1.089 4.884 1.772 6.939.594 1.794.619 2.951-1.602 2.321z"/>
        <path fill="#DB7803" d="M4.128 9.652c-1.439 2.333-2.158 4.906-2.333 7.505 2.615-1.499 6.334-2.652 12.393-.18.779-1.397 1.806-2.623 3.124-3.624-.992-.932-1.992-1.645-2.742-1.822-2.481-.588-7.17-2.213-10.442-1.879zm-.251 17.769c.324.215.719.416.832.658.032.069.069.139.103.209 1.92-1.11 4.42-1.707 6.553-1.642.006-.167.005-.339.032-.496.095-.552.506-.52.667-.965-4.887-1.059-6.75.812-8.187 2.236zM28.899 3.157c-.26-.074-.52-.148-.796-.2-.169-.032-.33-.19-.489-.382.918 2.123 1.899 5.032 1.024 7.689.467-.178 1.011-.875 1.409-.919.067-.007.143-.003.211-.008.206-1.704-.284-4.207-1.359-6.18z"/>
        <path fill="#FFAC33" d="M2.038 14.915C1.084 11.663 2.419 2.294 14.659 0c2.133 0 10.133 1.272 6.527 16.257-.559 2.325-1.797 2.739-3.562 1.605-4.126-2.648-11.602-7.099-15.586-2.947z"/>
    </symbol>
</svg>