<?xml version="1.0" standalone="no"?>
<!DOCTYPE svg PUBLIC "-//W3C//DTD SVG 20010904//EN"
 "http://www.w3.org/TR/2001/REC-SVG-20010904/DTD/svg10.dtd">
<svg version="1.0" xmlns="http://www.w3.org/2000/svg"
 width="512.000000pt" height="512.000000pt" viewBox="0 0 512.000000 512.000000"
 preserveAspectRatio="xMidYMid meet">
<metadata>
Created by potrace 1.11, written by Peter Selinger 2001-2013
</metadata>
<g transform="translate(0.000000,512.000000) scale(0.100000,-0.100000)"
fill="#000000" stroke="none">
<path d="M2355 4894 c-102 -11 -259 -38 -354 -61 -840 -203 -1511 -874 -1714
-1714 -51 -208 -62 -307 -62 -559 0 -252 11 -351 62 -559 203 -840 874 -1511
1714 -1714 208 -51 307 -62 559 -62 252 0 351 11 559 62 840 203 1511 874
1714 1714 51 208 62 307 62 559 0 252 -11 351 -62 559 -217 898 -958 1588
-1873 1748 -117 20 -186 25 -355 28 -115 2 -228 1 -250 -1z m270 -1055 c74
-20 135 -84 135 -141 0 -13 7 -33 15 -45 13 -19 26 -21 133 -24 141 -5 172
-18 172 -74 0 -22 -8 -41 -22 -55 -21 -20 -33 -20 -498 -20 -465 0 -477 0
-498 20 -14 14 -22 33 -22 55 0 56 31 69 172 74 107 3 120 5 133 24 8 12 15
32 15 45 0 100 141 175 265 141z m-665 -413 c70 -76 68 -76 600 -76 530 0 530
0 598 74 l40 43 108 -33 c145 -44 159 -49 183 -75 l21 -23 0 -928 0 -929 -24
-24 c-44 -44 -341 -125 -591 -161 -149 -22 -515 -25 -655 -5 -287 39 -592 128
-619 179 -8 15 -11 300 -11 947 l0 926 23 23 c13 13 66 36 127 55 86 27 136
43 157 50 2 1 21 -19 43 -43z"/>
<path d="M2240 3190 l-28 -30 -207 0 c-123 0 -214 -4 -226 -10 -18 -10 -19
-23 -19 -204 0 -152 3 -196 14 -205 9 -8 82 -11 242 -9 l229 3 3 176 2 176 35
41 c37 43 42 61 23 80 -19 19 -38 14 -68 -18z m-167 -185 l-68 -74 -46 45
c-54 53 -92 58 -97 13 -2 -20 10 -37 67 -87 38 -34 74 -62 79 -62 10 0 88 78
145 145 l26 30 1 -108 0 -107 -172 2 -173 3 -3 138 -3 137 156 0 156 0 -68
-75z"/>
<path d="M2452 2968 c-16 -16 -15 -33 4 -52 14 -14 67 -16 440 -16 274 0 432
4 445 10 21 12 25 40 7 58 -17 17 -879 17 -896 0z"/>
<path d="M2246 2575 l-23 -25 -220 0 c-157 0 -222 -3 -231 -12 -17 -17 -17
-389 0 -406 17 -17 449 -17 466 0 8 8 12 61 12 173 l0 161 35 41 c37 44 42 62
23 81 -18 18 -37 14 -62 -13z m-168 -185 l-73 -80 -46 46 c-54 53 -92 58 -97
13 -2 -21 10 -38 64 -88 37 -33 73 -61 79 -61 13 0 133 118 148 146 19 33 27
9 27 -76 l0 -90 -175 0 -175 0 0 135 0 135 161 0 160 0 -73 -80z"/>
<path d="M2449 2354 c-9 -11 -10 -20 -2 -32 9 -15 51 -17 459 -17 l449 0 0 30
0 30 -446 3 c-398 2 -448 0 -460 -14z"/>
<path d="M2231 1975 l-30 -35 -209 0 c-148 0 -211 -3 -220 -12 -9 -9 -12 -68
-12 -205 0 -180 1 -193 19 -203 12 -6 103 -10 226 -10 123 0 214 4 226 10 18
10 19 23 19 185 l0 175 35 39 c37 41 43 59 23 79 -21 21 -45 13 -77 -23z
m-103 -114 c-5 -14 -118 -131 -127 -131 -4 0 -23 16 -42 36 -46 48 -67 58 -85
43 -8 -6 -14 -19 -14 -27 0 -19 129 -152 146 -152 7 0 49 39 93 88 l81 87 0
-107 0 -108 -175 0 -175 0 0 133 c0 74 3 137 7 140 10 11 295 8 291 -2z"/>
<path d="M2456 1754 c-19 -19 -20 -36 -4 -52 17 -17 879 -17 896 0 18 18 14
46 -7 58 -13 6 -171 10 -445 10 -373 0 -426 -2 -440 -16z"/>
</g>
</svg>
