<svg xmlns="http://www.w3.org/2000/svg" viewBox="0 0 868.5 647"><defs><style>.a{opacity:0.8;}.b{fill:#46c2f2;}.c{fill:#61e0ec;}.d{fill:#38abe0;}.e{opacity:0.9;}.f{fill:#c1f3fb;}.g{opacity:0.7;}</style></defs><title>Ресурс 1</title><g class="a"><rect class="b" x="433" y="305" width="158" height="158"/><rect class="c" x="21" y="305" width="223" height="223"/><rect class="d" x="17.5" y="105.5" width="80" height="75"/><rect class="b" x="744.5" y="158.5" width="124" height="124"/></g><g class="e"><rect class="d" x="614.84" y="458.5" width="161.06" height="163"/><rect class="f" x="544" y="215" width="102" height="118"/><rect class="d" x="277" y="229" width="143" height="143"/><rect class="b" x="452" y="120" width="119" height="119"/><rect class="d" x="492" y="34" width="80" height="75"/></g><g class="g"><rect class="f" x="345" width="42" height="42"/><rect class="d" x="612" y="149" width="83" height="84"/><rect class="c" x="642" y="265" width="88" height="88"/><rect class="d" x="374" y="463" width="123" height="123"/><rect class="f" x="277" y="440" width="117" height="117"/><rect class="d" x="221" y="518" width="68" height="68"/><rect class="f" x="195" y="384" width="86" height="86"/></g><g class="e"><rect class="f" x="200" y="180" width="109" height="109"/><rect class="f" x="327" y="62" width="138" height="138"/><rect class="c" x="72" y="91" width="160" height="160"/><rect class="d" x="122" y="349" width="94" height="94"/><rect class="f" x="576" y="381" width="143" height="143"/><rect class="c" x="558" y="563" width="84" height="84"/><rect class="b" x="117" y="531" width="61" height="61"/></g><g class="a"><rect class="d" y="319" width="62" height="62"/><rect class="b" x="221" y="42" width="56" height="56"/><rect class="f" x="623.5" y="15.5" width="113" height="113"/><rect class="f" x="787.5" y="260.5" width="68" height="68"/><rect class="c" x="756.5" y="409.5" width="88" height="88"/></g></svg>